<?xml version="1.0" encoding="UTF-8"?>
<svg id="Layer_1" xmlns="http://www.w3.org/2000/svg" version="1.1" viewBox="0 0 241 155">
  <!-- Generator: Adobe Illustrator 29.5.1, SVG Export Plug-In . SVG Version: 2.1.0 Build 141)  -->
  <defs>
    <style>
      .st0, .st1 {
        fill: #cd2026;
      }

      .st2, .st3, .st1 {
        isolation: isolate;
      }

      .st4, .st3 {
        fill: #fff;
      }

      .st3 {
        font-family: EurostileExt-Med, 'Eurostile Extd';
        font-size: 12px;
      }

      .st1 {
        font-family: OpenSans-Semibold, 'Open Sans';
        font-size: 24px;
        font-weight: 600;
      }
    </style>
  </defs>
  <g id="Group_899">
    <g id="Group_105">
      <rect id="Rectangle_3206" class="st0" y="36" width="241" height="119" rx="15" ry="15"/>
      <g id="Group_50">
        <g id="DIGITAL_SOLUTIONS_GROUP" class="st2">
          <text class="st3" transform="translate(12.5 135.8)"><tspan x="0" y="0">DIGITAL SOLUTIONS GROUP</tspan></text>
        </g>
        <path id="Path_1" class="st4" d="M13.5,118.1h46.7c9.2,0,15-1.8,18.4-5.7,4.2-4.7,5.7-11.9,5.7-26.8s-1.3-22.1-4.7-26.7c-3.7-4.9-10.4-7.3-20.8-7.3H13.5v66.3ZM26.1,106v-41.7h31.3c11.8,0,14.2,3.7,14.2,22.1s-1.3,15.3-4.5,17.4c-2.2,1.5-5.2,2.2-9.7,2.2h-31.3ZM88.3,97.2c0,1.3,0,2.8,0,3.4,0,6.3,1.1,10.2,3.5,13.1,3.4,4,9.6,5.1,29.3,5.1s25.5-1.4,29.1-5.6c2.7-3.2,3.9-8,3.9-14.9s-1.1-10.9-3.4-13.8c-3.4-4.5-8.4-5.6-24.8-5.6h-9.3c-8.6,0-11.7-.4-13.6-1.7-1.6-1.1-2.3-3-2.3-5.9s1-5.4,2.9-6.5c2.5-1.5,9.7-2.3,20-2.3s11.3.8,13.6,2.1c1.7,1,2.5,3,2.6,6.9h12.3v-1.3c0-10.2-2.4-14.7-9.2-17.1-3.8-1.4-9.7-1.9-20.7-1.9-18,0-26.4,1.6-30.1,5.8-2.6,2.8-4.1,8.9-4.1,16.2s1.2,10,3.9,12.8c3,3.4,7.5,4.5,19.1,4.6h7.9c14.9,0,15,0,17.3.7,3.8,1,5.2,2.9,5.2,6.8,0,2-.5,4-1.6,5.7-1,1.4-2.5,2.1-5.7,2.6-5.6.9-11.3,1.3-17,1.2-8,0-12.3-.6-14.3-2-1.6-1.1-2.2-3.4-2.2-7.7v-.7h-12.4ZM190.9,82.6v10h24.3c0,4.6-.4,7.8-1.5,9.4-2.5,4.3-4.2,4.7-20.4,4.7s-17.9-.5-20.3-3.1c-2.3-2.4-2.9-6.9-2.9-19.8s.6-14.7,2.3-17.1c2.1-3.1,5.2-3.5,24.9-3.5s13.4.4,15.6,2.5c1.6,1.5,2,3.1,2,7.3h12.4c0-7.4-1.1-12.5-3.5-15.7-3.4-4.8-9.2-6.2-25.2-6.2s-21.9.3-27,1.2c-3.9.4-7.4,2.4-9.8,5.5-3.5,4.7-4.4,10.2-4.4,27.8s.2,13.8.9,17.6c1.1,7.1,3.9,10.9,9.1,13.3,3.4,1.6,10.4,2.2,24.9,2.2s21.1-.2,24.1-1.1c4.3-1.3,7-3.5,8.6-7.1,2-4.4,2.5-8.8,2.5-20.9v-7.1h-36.6Z"/>
      </g>
      <g id="Proud_member_of" class="st2">
        <text class="st1" transform="translate(17 26)"><tspan x="0" y="0">Proud member of</tspan></text>
      </g>
    </g>
  </g>
</svg>